<?xml version="1.0"?><svg fill="#000000" xmlns="http://www.w3.org/2000/svg" viewBox="0 0 24 24" width="24px" height="24px">    <path d="M 7 1 C 6.448 1 6 1.448 6 2 L 6 3 L 5 3 C 3.9 3 3 3.9 3 5 L 3 10 C 3 10.552 3.448 11 4 11 C 4.552 11 5 10.552 5 10 L 5 8 L 19 8 L 19 19 L 5 19 L 5 18 C 5 17.448 4.552 17 4 17 C 3.448 17 3 17.448 3 18 L 3 19 C 3 20.1 3.9 21 5 21 L 19 21 C 20.1 21 21 20.1 21 19 L 21 5 C 21 3.9 20.1 3 19 3 L 18 3 L 18 2 C 18 1.448 17.552 1 17 1 C 16.448 1 16 1.448 16 2 L 16 3 L 8 3 L 8 2 C 8 1.448 7.552 1 7 1 z M 10.638672 11.003906 C 10.301855 11.043955 10 11.319375 10 11.71875 L 10 13 L 4 13 C 3.448 13 3 13.448 3 14 C 3 14.552 3.448 15 4 15 L 10 15 L 10 16.28125 C 10 16.92025 10.772609 17.239109 11.224609 16.787109 L 13.335938 14.677734 C 13.710938 14.302734 13.710938 13.695313 13.335938 13.320312 L 11.224609 11.210938 C 11.055109 11.042187 10.840762 10.979877 10.638672 11.003906 z"/></svg>