<svg fill="#000000" xmlns="http://www.w3.org/2000/svg" viewBox="0 0 24 24" width="24px" height="24px"><path d="M 6 2 C 5.476563 2 4.941406 2.183594 4.5625 2.5625 C 4.183594 2.941406 4 3.476563 4 4 L 4 20 C 4 20.523438 4.183594 21.058594 4.5625 21.4375 C 4.941406 21.816406 5.476563 22 6 22 L 18 22 C 18.523438 22 19.058594 21.816406 19.4375 21.4375 C 19.816406 21.058594 20 20.523438 20 20 L 20 4 C 20 3.476563 19.816406 2.941406 19.4375 2.5625 C 19.058594 2.183594 18.523438 2 18 2 Z M 6 4 L 18 4 L 18 20 L 6 20 Z M 12 7.6875 L 10.6875 10.6875 L 7.5 11 L 9.90625 13.09375 L 9.1875 16.3125 L 12 14.59375 L 14.8125 16.3125 L 14.09375 13.09375 L 16.5 11 L 13.3125 10.6875 Z M 12 10.3125 L 12.40625 11.09375 L 12.59375 11.6875 L 13.1875 11.8125 L 14.09375 11.90625 L 13.40625 12.5 L 12.90625 12.90625 L 13 13.5 L 13.1875 14.40625 L 12.40625 13.90625 L 12 13.40625 L 11.5 13.6875 L 10.6875 14.1875 L 10.90625 13.3125 L 11 12.6875 L 10.5 12.3125 L 9.8125 11.6875 L 10.6875 11.59375 L 11.3125 11.5 L 11.5 10.90625 Z"/></svg>