<svg fill="#000000" xmlns="http://www.w3.org/2000/svg" viewBox="0 0 24 24" width="24px" height="24px"><path d="M 13 2 L 13 4 L 14 4 L 14 5.9140625 L 16.085938 8 L 14 10.085938 L 14 12 L 13 12 L 13 14 L 22 14 L 22 12 L 21 12 L 21 10.085938 L 18.914062 8 L 21 5.9140625 L 21 4 L 22 4 L 22 2 L 13 2 z M 11 2.0664062 C 7.337 2.5174062 4.4391094 5.4391875 4.0371094 9.1171875 L 2.1445312 12.087891 C 1.8395313 12.564891 2.0375937 13.200922 2.5585938 13.419922 L 3.984375 14.021484 L 3.984375 17 C 3.984375 18.105 4.879375 19 5.984375 19 L 7.984375 19 L 7.984375 22 L 16.984375 22 L 16.984375 19.240234 C 16.984375 17.753234 17.271969 16.782 17.667969 16 L 15.501953 16 C 15.198953 16.846 14.984375 17.880234 14.984375 19.240234 L 14.984375 20 L 9.984375 20 L 9.984375 17 L 5.984375 17 L 5.984375 12.693359 L 4.7617188 12.177734 L 4.5214844 12.076172 L 5.7226562 10.193359 L 5.9726562 9.8007812 L 6.0234375 9.3378906 C 6.3204375 6.6288906 8.389 4.5227969 11 4.0917969 L 11 2.0664062 z M 16 4 L 19 4 L 19 5.0859375 L 17.5 6.5859375 L 16 5.0859375 L 16 4 z M 17.5 9.4140625 L 19 10.914062 L 19 12 L 16 12 L 16 10.914062 L 17.5 9.4140625 z"/></svg>